<svg version="1" id="Laag_1" xmlns="http://www.w3.org/2000/svg" viewBox="0 0 283.5 59.5">
  <style>
    .st0{fill:#FFFFFF;}
  </style>
  <path class="st0" d="M276.7 0C273 0 270 3 270 6.8c0 3.7 3 6.8 6.8 6.8 3.7 0 6.8-3 6.8-6.8-.1-3.8-3.2-6.8-6.9-6.8m-5.6 5.3l1.8 1 .7 2.6-1 1.9-1.5-5.5zm9.2 6c-.7-.5-2.9-2.2-3.1-2.4-.2-.2-.2-.6-.2-.8 0-.2.5-3.4.5-3.4H274s1.6.9 2.1 1.2c.6.3.7.7.4 1.3-.3.6-1.9 3.6-2.4 4.5-.4.8-1.7.3-1.2-.9.6-1.1 2-3.9 2-3.9s-3-1.7-3.7-2.1c-.7-.4-.4-1.6.5-1.6h6.4c.8 0 .9.4.8 1.1-.1.7-.6 3.6-.6 3.6s2.1 1.6 2.8 2.2c.8.7-.1 1.8-.8 1.2m.6-4.8c-.9 0-1.6-.7-1.6-1.6 0-.9.7-1.6 1.6-1.6.9 0 1.6.7 1.6 1.6 0 .9-.7 1.6-1.6 1.6M44.8 19.7l27.1-15c-7.4 0-18.6.4-24.8.4L23.7 18.3 25.8 5c-10.7-.1-9.3-.1-20.6-.2 0 0-5.1 32.7-5.2 32.7h21.3l2.1-16.6c9 7 16.2 12.9 20.2 16.6h25.8L48.5 22.6l-3.7-2.9zM255.6 4.8h-12.3c-2.5 0-6.5.2-12 .1-1.7 1.6-5.9 5.7-5.9 5.7L202 33.1c.1-1.6.3-3.4.5-5.4.4-3.7.8-6.7 1.1-8.8l.1-.8s-18.6-.9-27.6.4l-.6 5.8s9.8.3 11.8.4l-.6 5.3c-3.3.4-9.7 1-12.5 1-3.4 0-6.4-.3-9.2-1-2.7-.7-4.7-1.6-6-2.9-1.3-1.3-1.9-2.7-1.9-4.4 0-1.6.5-3.1 1.7-4.6 1.1-1.4 2.8-2.7 5-3.7s4.9-1.8 7.9-2.3c3.1-.5 6.3-.8 9.8-.8 1.3 0 2.8 0 4.5.1 4.6.2 10.1.6 18.5 1.5l.2-5c-8.4-1.8-19.5-3.8-26.4-3.8-9.4 0-17.1.8-23 2.4-5.9 1.6-10.5 3.8-13.7 6.6-1.7 1.5-2.9 3-3.7 4.6-.4-1.5-1.1-2.8-2.2-4.1-1.7-2-4.3-3.7-7.8-5.2s-7.5-2.6-12.2-3.3c-4.6-.7-9.5-1-14.5-1-7.8.2-14.9.9-21.2 2.4C73.8 8 69 10 65.9 12.7c-3.2 2.6-4.8 5.7-4.8 9.2 0 2.4.8 4.5 2.3 6.5 1.5 1.9 4.1 3.7 7.7 5.3 3.6 1.6 7.8 2.7 12.7 3.4 4.9.7 9.9 1.1 15.3 1.1s10.5-.4 15.5-1.1c5-.7 9.2-1.9 12.8-3.4 3.6-1.6 6.3-3.5 8.2-5.7.8-.9 1.4-1.9 1.8-2.8.3 1 .7 1.9 1.4 2.9 1.2 1.8 2.9 3.4 5 4.8 2.2 1.3 4.9 2.4 8.1 3.2 3.2.8 6.9 1.3 11 1.7 4.1.3 8.3.5 12.6.5 2.6 0 5.6-.1 8.9-.2 3.3-.1 7.7-.3 10-.4 1.5-.1 1.9-.1 4-.1h21.2c2.9-3.4 5.7-6.5 8.5-9.3h23.7c2.6 3.6 4.6 6.7 6 9.3h21.5L255.6 4.8zM121.1 21.5c-1 5.4-10.2 9.5-21.3 9.5h-1.3c-8-.2-14.7-2.6-17.6-6.2-1.2-1.5-1.6-3.1-1.3-4.7 1-5.4 10.2-9.5 21.3-9.5h1.3c8 .2 14.7 2.6 17.6 6.2 1.1 1.5 1.6 3.1 1.3 4.7zm112.5-.3l3.4-3.5c1.4-1.5 3.4-3.7 5.5-6.1.3.6 2.1 4 5.8 9.6h-14.7zM70.9 57.8h3l-.2 1.1h-4.3l1.7-10.5h1.2l-1.4 9.4zm17.2-4.2c-.5 3-3.5 5.4-6.6 5.4-3.1 0-5.3-2.4-4.8-5.4.5-3 3.5-5.5 6.6-5.5 3.1.1 5.3 2.5 4.8 5.5zm-10.3 0c-.3 2.4 1.3 4.4 3.8 4.4s4.8-2 5.2-4.4c.4-2.4-1.3-4.4-3.8-4.4-2.5.1-4.8 2-5.2 4.4zm16.6 2.8l4.5-8h1.3l-6.3 11.2-2.6-11.2h1.3l1.8 8zm8.7-8h5.7l-.2 1.1h-4.5l-.5 3.1h4.3l-.2 1.1h-4.3l-.7 4.1h4.5l-.2 1.1h-5.7l1.8-10.5zm13.7 0h1.4l2 4.7 3.6-4.7h1.4l-4.6 6-.7 4.5h-1.2l.7-4.5-2.6-6zm20.9 5.2c-.5 3-3.5 5.4-6.6 5.4-3.1 0-5.3-2.4-4.8-5.4.5-3 3.5-5.5 6.6-5.5 3.1.1 5.3 2.5 4.8 5.5zm-10.2 0c-.4 2.4 1.3 4.4 3.8 4.4s4.8-2 5.2-4.4c.4-2.4-1.3-4.4-3.8-4.4-2.5.1-4.8 2-5.2 4.4zm15.1 1c-.1.8-.3 1.7.1 2.3.4.6 1.2 1 2 1s1.7-.3 2.3-.9c.7-.7.8-1.6.9-2.4l1-6.3h1.2l-1.1 6.6c-.2 1.1-.4 2.1-1.4 2.9-.9.8-2.1 1.2-3.2 1.2-1 0-2-.4-2.7-1.1-.8-.9-.8-1.8-.6-3l1.1-6.6h1.2l-.8 6.3zm11.5 4.3h-1.2l1.7-10.5h1.6c2.1 0 3.9.5 3.5 2.9-.3 1.6-1.5 2.8-3.2 2.9l2.7 4.7h-1.5l-2.6-4.6h-.3l-.7 4.6zm1-5.7h.4c1.4 0 2.8-.2 3.1-1.9.3-1.7-1-1.9-2.5-1.9h-.4l-.6 3.8zm14.5-4.8h1.8c2 0 3.6.7 3.2 2.8-.1.9-.6 1.6-1.4 2.1 1.3.3 1.9 1.4 1.6 2.7-.3 2.1-2.2 2.9-4.4 2.9h-2.6l1.8-10.5zm-.3 9.4h1.2c1.4 0 2.9-.3 3.1-1.9.3-1.6-1.3-1.9-2.7-1.9h-1.1l-.5 3.8zm.8-4.8h.5c1.4 0 2.6-.2 2.9-1.8.3-1.6-.8-1.8-2.3-1.8h-.5l-.6 3.6zm9.4 5.9h-1.2l1.7-10.5h1.2l-1.7 10.5zm12.2-10.5h1.6l-6 4.9 4.4 5.6H190l-3.7-4.8-.4.3-.7 4.5H184l1.7-10.5h1.2l-.7 4.5 5.5-4.5zm4.5 0h5.7l-.2 1.1h-4.5l-.5 3.1h4.3l-.2 1.1h-4.3l-.7 4.1h4.5l-.2 1.1h-5.7l1.8-10.5z"/>
</svg>
